<?xml version="1.0" encoding="UTF-8"?>
<svg xmlns="http://www.w3.org/2000/svg" viewBox="0 0 64 64" width="512" height="512"><g id="Outline"><path d="M13,19H29.13l6.213,6.213a1,1,0,0,0,.707.293.957.957,0,0,0,.27-.038,1,1,0,0,0,.7-.727L38.407,19h9.046L43.4,26.017a1.026,1.026,0,0,0-.113.3l-1.267,6.2a1,1,0,0,0,1.642.948l4.732-4.2a.99.99,0,0,0,.2-.248L54.381,19H58V36.923a1,1,0,0,0,2,0V18a1,1,0,0,0-1-1H55.536L61.6,6.5a3,3,0,1,0-5.2-3L52.926,9.521a1,1,0,1,0,1.732,1L56.634,7.1l1.731,1-11,19.052-1.731-1,7.024-12.166a1,1,0,0,0-1.732-1L48.608,17H38.89L41.972,4.235a1,1,0,0,0-1.206-1.207L32.815,4.947a1,1,0,0,0,.469,1.944l6.36-1.535L35.5,22.538,22.462,9.5,29.4,7.83a1,1,0,1,0-.47-1.944L20.259,7.978a1,1,0,0,0-.472,1.679L27.13,17H13a1,1,0,0,0,0,2ZM59.5,4.134A1,1,0,0,1,59.865,5.5l-.5.866-1.731-1,.5-.866A1,1,0,0,1,59.5,4.134ZM44.969,28.077l1.061.612-1.449,1.285Z"/><path d="M61.474,41.12l-13-7a1,1,0,0,0-.948,0l-13,7A1,1,0,0,0,34,42v5a1,1,0,0,0,1.474.88L36,47.6V55H9A5,5,0,0,1,9,45a1,1,0,0,0,1-1V11a1,1,0,0,0-1-1,7.008,7.008,0,0,0-7,7V30a1,1,0,0,0,2,0V17a5.008,5.008,0,0,1,4-4.9v30.97a6.991,6.991,0,0,0-4,2.034V34a1,1,0,0,0-2,0V50a7.008,7.008,0,0,0,7,7H36v4a1,1,0,0,0,1,1H59a1,1,0,0,0,1-1V56a1,1,0,0,0-2,0v4H48V53a1,1,0,0,0-1-1H41a1,1,0,0,0-1,1v7H38V46.52l10-5.384L58,46.52V52a1,1,0,0,0,2,0V47.6l.526.283A1,1,0,0,0,62,47V42A1,1,0,0,0,61.474,41.12ZM42,54h4v6H42Zm18-8.674L48.474,39.12a1,1,0,0,0-.948,0L36,45.326V42.6l12-6.461L60,42.6Z"/><path d="M51,49V45a1,1,0,0,0-1-1H46a1,1,0,0,0-1,1v4a1,1,0,0,0,1,1h4A1,1,0,0,0,51,49Zm-2-1H47V46h2Z"/><path d="M51,58h4a1,1,0,0,0,1-1V53a1,1,0,0,0-1-1H51a1,1,0,0,0-1,1v4A1,1,0,0,0,51,58Zm1-4h2v2H52Z"/><path d="M33,39V32.618l.553.277A1,1,0,0,0,35,32V28a1,1,0,0,0-.553-.895l-8-4a1,1,0,0,0-.894,0l-8,4A1,1,0,0,0,17,28v4a1,1,0,0,0,1.447.9L19,32.618V39a1,1,0,0,0,1,1H32A1,1,0,0,0,33,39ZM19,28.618l7-3.5,7,3.5v1.764l-6.553-3.277a1,1,0,0,0-.894,0L19,30.382ZM25,38V36h2v2Zm4,0V35a1,1,0,0,0-1-1H24a1,1,0,0,0-1,1v3H21V31.618l5-2.5,5,2.5V38Z"/><path d="M12,41a1,1,0,0,0,1,1h2a1,1,0,0,0,0-2V23a1,1,0,0,0,0-2H13a1,1,0,0,0,0,2V40A1,1,0,0,0,12,41Z"/><path d="M31,46a1,1,0,0,0,1-1V43a1,1,0,0,0-2,0H20a1,1,0,0,0-2,0v2a1,1,0,0,0,2,0H30A1,1,0,0,0,31,46Z"/><path d="M26,52a1,1,0,0,0,1-1V48a1,1,0,0,0-1.707-.707L24,48.586l-1.293-1.293A1,1,0,0,0,21,48v3a1,1,0,0,0,2,0v-.586l.293.293a1,1,0,0,0,1.414,0L25,50.414V51A1,1,0,0,0,26,52Z"/><path d="M27.4,10.893a1,1,0,0,0,.255.978l5.471,5.471a1,1,0,0,0,.707.293.952.952,0,0,0,.27-.038,1,1,0,0,0,.7-.728l1.74-7.21a1,1,0,0,0-1.206-1.207l-7.211,1.74A1,1,0,0,0,27.4,10.893Zm6.818-.113-.939,3.887-2.949-2.949Z"/></g></svg>
