<svg height="512" viewBox="0 0 53 60" width="512" xmlns="http://www.w3.org/2000/svg"><g id="019---Astronaut-Sitting-On-Planet"><path id="Shape" d="m3 21c-.55228475 0-1 .4477153-1 1v1h-1c-.55228475 0-1 .4477153-1 1s.44771525 1 1 1h1v1c0 .5522847.44771525 1 1 1s1-.4477153 1-1v-1h1c.55228475 0 1-.4477153 1-1s-.44771525-1-1-1h-1v-1c0-.5522847-.44771525-1-1-1z"/><path id="Shape" d="m52 5h-1v-1c0-.55228475-.4477153-1-1-1s-1 .44771525-1 1v1h-1c-.5522847 0-1 .44771525-1 1s.4477153 1 1 1h1v1c0 .55228475.4477153 1 1 1s1-.44771525 1-1v-1h1c.5522847 0 1-.44771525 1-1s-.4477153-1-1-1z"/><path id="Shape" d="m40 37.33v-5.83c-.0115479-.8959762-.2939192-1.7674925-.81-2.5.51-2.88-.47-8.11-2.21-10.29 2.8234125-4.2590041 2.640065-9.83880705-.4568498-13.9032742-3.0969147-4.06446715-8.4280083-5.72195263-13.2835616-4.12998007-4.8555532 1.59197256-8.1703751 6.08416287-8.2595886 11.19325427l-1.75.5c-1.9337648.5508253-3.1580957 2.4515348-2.86 4.44l2.35 15.69c.2127922 1.4071175 1.1571771 2.5952146 2.48 3.12l1 .41c-.25.24-.48.48-.7.72-9.98 1.36-15.5 4.66-15.5 9.25s5.53 7.89 15.56 9.3c2.64591 2.9903684 6.4471134 4.7025761 10.44 4.7025761s7.79409-1.7122077 10.44-4.7025761c10.03-1.41 15.56-4.7 15.56-9.3 0-4-4.15-7-12-8.67zm-27.91 10.28c-3.8-.91-5.09-2-5.09-2.4s1.37-1.56 5.4-2.49c-.3963475 1.5981274-.50136 3.2546151-.31 4.89zm2.11.45c-.8520604-4.7613536 1.257679-9.5655541 5.34-12.16l4.46 1.1v6.5c-.000003 1.1952088.4754753 2.3413195 1.3215531 3.1855213.8460777.8442017 1.993241 1.3171347 3.1884469 1.3144787 1.8988806-.0018147 3.5883939-1.2057434 4.21-3 1.5042537 1.2197435 3.6264554 1.3209936 5.24.25.0841676.936131.0302579 1.8795504-.16 2.8-7.8160865 1.2582456-15.78285 1.2616213-23.6.01zm16.27-24.57c.4461793 1.0074481.700529 2.0892819.75 3.19-.33-.22 0 0-5.39-2.74 1.5612084.1573796 3.1381281.0044456 4.64-.45zm-8.61-.67c.3208493 1.026799 1.0417626 1.8810812 2 2.37l6 3c.4754146.2379865.8365087.6554695 1.0035064 1.1602154.1669977.5047458.1261544 1.0552119-.1135064 1.5297846-.4953708.9786313-1.6865246 1.3756826-2.67.89l-6-3c-3.1436815-1.5727892-4.8923956-5.0134145-4.31-8.48l.09-.57c1.0936759 1.3102197 2.4583351 2.3678306 4 3.1zm-3.86 5.26c1.73 2 3.1 2.45 9.21 5.49 1.1990835.6135803 2.6285218.5720926 3.79-.11v9.94c.0276142 1.3807119-1.0692881 2.5223858-2.45 2.55s-2.5223858-1.0692881-2.55-2.45v-6.5c-.0007104-.9191073-.6277552-1.7194145-1.52-1.94l-4.61-1.15c-1.0915773-.3018904-1.8532388-1.2875699-1.87-2.42zm21.68 15 .12-.33c4.21 1 5.2 2.12 5.2 2.45s-1.27 1.48-5.09 2.4c.173335-1.5057061.0956127-3.0297391-.23-4.51zm-1.68-1.53c0 1.3807119-1.1192881 2.5-2.5 2.5s-2.5-1.1192881-2.5-2.5c0-8.92 0-8.37-.15-9.14 1.6763058 1.0441026 3.863733.7085556 5.15-.79zm-1.94-10.87c-.4766303.3074999-1.0614123.3981533-1.6087724.2493934-.5473602-.1487599-1.0058111-.52294-1.2612276-1.0293934-.67-1.45 1-2.57-.86-7.15 1.2504034-.6203005 2.3838424-1.4526169 3.35-2.46 1.32 2.13 2.73 8.88.38 10.39zm-.2-23.3c1.4157154 2.6741602 1.5335465 5.8482338.32 8.62-.1046183.2294233-.2214524.4530771-.35.67-3.84 2.23-9.3 1.64-12.14-1.06-1.0683359-.8775588-1.6875096-2.1874476-1.6875096-3.57s.6191737-2.69244121 1.6875096-3.57c3-2.87 8.52-3.24 12.17-1.09zm-16.75-1.53c1.6641584-2.13153275 4.1206444-3.49820873 6.8092624-3.78836092s5.3801279.52095872 7.4607376 2.24836092c-3.86-.84-8.27 0-11.07 2.66-6.31 5.93.99 14.89 11.05 12.72-3.9335696 3.2046007-9.643593 2.9555574-13.2832184-.5793489-3.6396253-3.5349063-4.0552133-9.23522876-.9667816-13.2606511zm-4.38 26.3-2.35-15.69c-.150024-.9913198.4571295-1.9405317 1.42-2.22l1.35-.38c.2026863 1.2529939.5973207 2.4672538 1.17 3.6-.289632.8195978-.4711621 1.6734618-.54 2.54-.2344753 1.4125944-.1594125 2.8592583.22 4.24v7.25c.0044559.9156811.2869222 1.8084141.81 2.56l-.81-.34c-.6730653-.2537795-1.1580041-.8494524-1.27-1.56zm4.2 23.53c4.7037486.4250927 9.4362514.4250927 14.14 0-4.2065788 3.0909566-9.9334212 3.0909566-14.14 0zm16.88-2.31c-6.5163741.8400081-13.1136259.8400081-19.63 0-8.88-1.19-14.18-3.95-14.18-7.37 0-3.11 4.4-5.67 11.88-7-.2798546.4913808-.530295.9989401-.75 1.52-5.39 1.06-8.13 2.64-8.13 4.69 0 3 6 4.3 8.93 4.83 7.9957669 1.2799584 16.1442331 1.2799584 24.14 0 3-.52 8.93-1.83 8.93-4.83 0-1.89-2.36-3.39-7-4.45v-1.39c6.37 1.41 10 3.8 10 6.63 0 3.42-5.3 6.18-14.19 7.37z"/><path id="Shape" d="m29 8c0 .55228475.4477153 1 1 1 .16 0 4 0 4 3 0 .5522847.4477153 1 1 1s1-.4477153 1-1c0-4-3.92-5-6-5-.5522847 0-1 .44771525-1 1z"/><path id="Shape" d="m46 30c-.5522847 0-1 .4477153-1 1v1h-1c-.5522847 0-1 .4477153-1 1s.4477153 1 1 1h1v1c0 .5522847.4477153 1 1 1s1-.4477153 1-1v-1h1c.5522847 0 1-.4477153 1-1s-.4477153-1-1-1h-1v-1c0-.5522847-.4477153-1-1-1z"/></g></svg>