<?xml version="1.0" encoding="iso-8859-1"?>
<!-- Generator: Adobe Illustrator 18.0.0, SVG Export Plug-In . SVG Version: 6.00 Build 0)  -->
<!DOCTYPE svg PUBLIC "-//W3C//DTD SVG 1.1//EN" "http://www.w3.org/Graphics/SVG/1.1/DTD/svg11.dtd">
<svg version="1.1" id="Capa_1" xmlns="http://www.w3.org/2000/svg" xmlns:xlink="http://www.w3.org/1999/xlink" x="0px" y="0px"
	 viewBox="0 0 463.98 463.98" style="enable-background:new 0 0 463.98 463.98;" xml:space="preserve">
<g>
	<path d="M432.909,145.296H31.071C13.938,145.296,0,159.235,0,176.367v65.847c0,17.133,13.938,31.071,31.071,31.071h170.335
		l-37.324,27.33c-3.49,2.555-4.941,7.065-3.597,11.176c1.344,4.111,5.18,6.892,9.505,6.892h124c4.325,0,8.16-2.781,9.505-6.892
		c1.344-4.111-0.107-8.621-3.597-11.176l-37.324-27.33h170.335c17.133,0,31.071-13.938,31.071-31.071v-65.847
		C463.98,159.235,450.042,145.296,432.909,145.296z M200.574,298.684l31.417-23.004l31.416,23.004H200.574z M443.98,242.215
		c0,6.105-4.967,11.071-11.071,11.071H31.071c-6.104,0-11.071-4.967-11.071-11.071v-65.847c0-6.105,4.967-11.071,11.071-11.071
		h401.838c6.104,0,11.071,4.967,11.071,11.071V242.215z"/>
	<path d="M198.671,178.29c-17.093,0-30.999,13.906-30.999,30.999s13.906,30.999,30.999,30.999s30.999-13.906,30.999-30.999
		S215.764,178.29,198.671,178.29z M198.671,220.288c-6.065,0-10.999-4.934-10.999-10.999s4.934-10.999,10.999-10.999
		s10.999,4.934,10.999,10.999S204.736,220.288,198.671,220.288z"/>
	<path d="M265.31,178.29c-17.093,0-30.999,13.906-30.999,30.999s13.906,30.999,30.999,30.999s30.999-13.906,30.999-30.999
		S282.402,178.29,265.31,178.29z M265.31,220.288c-6.064,0-10.999-4.934-10.999-10.999s4.935-10.999,10.999-10.999
		s10.999,4.934,10.999,10.999S271.374,220.288,265.31,220.288z"/>
	<path d="M86.261,178.29c-17.093,0-30.999,13.906-30.999,30.999s13.906,30.999,30.999,30.999s30.999-13.906,30.999-30.999
		S103.354,178.29,86.261,178.29z M86.261,220.288c-6.065,0-10.999-4.934-10.999-10.999s4.934-10.999,10.999-10.999
		s10.999,4.934,10.999,10.999S92.326,220.288,86.261,220.288z"/>
	<path d="M143.353,199.289c-2.63,0-5.21,1.07-7.07,2.93c-1.87,1.86-2.93,4.44-2.93,7.07c0,2.63,1.06,5.21,2.93,7.07
		c1.86,1.86,4.44,2.93,7.07,2.93s5.21-1.07,7.07-2.93c1.86-1.86,2.93-4.43,2.93-7.07c0-2.63-1.07-5.21-2.93-7.07
		C148.563,200.359,145.983,199.289,143.353,199.289z"/>
</g>
<g>
</g>
<g>
</g>
<g>
</g>
<g>
</g>
<g>
</g>
<g>
</g>
<g>
</g>
<g>
</g>
<g>
</g>
<g>
</g>
<g>
</g>
<g>
</g>
<g>
</g>
<g>
</g>
<g>
</g>
</svg>
