<?xml version="1.0"?>
<svg xmlns="http://www.w3.org/2000/svg" id="Icons" viewBox="0 0 74 74" width="512" height="512"><path d="M37,63.281a1,1,0,0,1-.8-.4c-.817-1.081-20.02-26.617-20.02-40.067a20.817,20.817,0,1,1,41.635,0c0,13.451-19.2,38.987-20.02,40.067A1,1,0,0,1,37,63.281ZM37,4A18.839,18.839,0,0,0,18.183,22.817C18.183,34.106,33.321,55.553,37,60.6c3.679-5.046,18.817-26.495,18.817-37.78A18.839,18.839,0,0,0,37,4Z"/><path d="M37,37.466A14.327,14.327,0,1,1,51.327,23.139,14.343,14.343,0,0,1,37,37.466Zm0-26.653A12.327,12.327,0,1,0,49.327,23.139,12.341,12.341,0,0,0,37,10.813Z"/><path d="M37,72c-11.675,0-20.82-4.612-20.82-10.5,0-4.562,5.459-8.454,13.909-9.916a1,1,0,1,1,.341,1.971C23.218,54.8,18.18,58.07,18.18,61.5,18.18,66.107,26.8,70,37,70s18.82-3.893,18.82-8.5c0-3.43-5.038-6.7-12.25-7.945a1,1,0,1,1,.341-1.971C52.36,53.046,57.82,56.938,57.82,61.5,57.82,67.388,48.675,72,37,72Z"/></svg>
