<svg id="Capa_1" enable-background="new 0 0 512 512" height="512" viewBox="0 0 512 512" width="512" xmlns="http://www.w3.org/2000/svg"><g><path d="m443.5 168.714c-4.143 0-7.5 3.358-7.5 7.5v308.286c0 6.893-5.607 12.5-12.5 12.5h-250c-4.143 0-7.5 3.358-7.5 7.5s3.357 7.5 7.5 7.5h250c15.164 0 27.5-12.336 27.5-27.5v-308.286c0-4.142-3.357-7.5-7.5-7.5z"/><path d="m423.5 0h-335c-15.164 0-27.5 12.336-27.5 27.5v457c0 15.164 12.336 27.5 27.5 27.5h50c4.143 0 7.5-3.358 7.5-7.5s-3.357-7.5-7.5-7.5h-50c-6.893 0-12.5-5.607-12.5-12.5v-457c0-6.893 5.607-12.5 12.5-12.5h335c6.893 0 12.5 5.607 12.5 12.5v113.714c0 4.142 3.357 7.5 7.5 7.5s7.5-3.358 7.5-7.5v-113.714c0-15.164-12.336-27.5-27.5-27.5z"/><path d="m228.409 121.073v10.627h-12.577c-6.774 0-12.285 5.511-12.285 12.285v54.17c0 6.774 5.511 12.285 12.285 12.285h80.336c6.774 0 12.285-5.511 12.285-12.285 0-.663 0-53.689 0-54.17 0-6.774-5.511-12.285-12.285-12.285h-12.577v-10.627c0-6.381-5.191-11.573-11.572-11.573h-32.037c-6.381 0-11.573 5.191-11.573 11.573zm65.044 74.368h-74.906v-20.831h29.953v1.898c0 4.142 3.357 7.5 7.5 7.5s7.5-3.358 7.5-7.5v-1.898h29.953zm0-48.741v12.91h-29.953v-1.323c0-4.142-3.357-7.5-7.5-7.5s-7.5 3.358-7.5 7.5v1.323h-29.953v-12.91zm-50.044-22.2h25.182v7.2h-25.182z"/><path d="m367.516 129.19-100.358-93.562c-6.257-5.833-16.06-5.833-22.316 0l-100.358 93.563c-7.913 7.38-2.679 20.659 8.138 20.659h20.219v80.396c0 9.33 7.591 16.92 16.921 16.92h132.479c9.33 0 16.921-7.59 16.921-16.92v-80.396h20.219c10.815 0 16.048-13.28 8.135-20.66zm-35.856 5.66c-4.143 0-7.5 3.358-7.5 7.5v87.896c0 1.059-.861 1.92-1.921 1.92h-132.478c-1.06 0-1.921-.861-1.921-1.92v-87.896c0-4.142-3.357-7.5-7.5-7.5h-19.929l94.659-88.25c.521-.486 1.337-.487 1.859 0l94.659 88.25z"/><path d="m248.5 277.647v195.619c0 4.142 3.357 7.5 7.5 7.5s7.5-3.358 7.5-7.5v-195.619c0-4.142-3.357-7.5-7.5-7.5s-7.5 3.358-7.5 7.5z"/><path d="m141.627 336.137c2.926 2.928 7.676 2.93 10.606 0l10.017-10.017 10.017 10.017c2.928 2.928 7.678 2.93 10.606 0 2.93-2.929 2.93-7.677.001-10.606l-10.017-10.018 10.017-10.018c2.929-2.929 2.929-7.678-.001-10.606-2.928-2.93-7.677-2.929-10.606 0l-10.017 10.017-10.017-10.017c-2.93-2.929-7.679-2.93-10.606 0-2.93 2.929-2.93 7.677-.001 10.606l10.017 10.018-10.017 10.018c-2.929 2.928-2.929 7.677.001 10.606z"/><path d="m366.448 294.889-23.936 23.936-8.382-13.583c-2.176-3.526-6.798-4.62-10.321-2.444-3.525 2.175-4.619 6.796-2.444 10.321l13.362 21.654c2.533 4.105 8.252 4.798 11.687 1.365l30.642-30.642c2.929-2.929 2.929-7.678 0-10.606-2.93-2.93-7.678-2.93-10.608-.001z"/><path d="m109.75 371c0 4.142 3.357 7.5 7.5 7.5h90c4.143 0 7.5-3.358 7.5-7.5s-3.357-7.5-7.5-7.5h-90c-4.143 0-7.5 3.358-7.5 7.5z"/><path d="m117.25 452.873h90c4.143 0 7.5-3.358 7.5-7.5s-3.357-7.5-7.5-7.5h-90c-4.143 0-7.5 3.358-7.5 7.5s3.357 7.5 7.5 7.5z"/><path d="m394.75 363.5h-90c-4.143 0-7.5 3.358-7.5 7.5s3.357 7.5 7.5 7.5h90c4.143 0 7.5-3.358 7.5-7.5s-3.357-7.5-7.5-7.5z"/><path d="m394.75 437.873h-90c-4.143 0-7.5 3.358-7.5 7.5s3.357 7.5 7.5 7.5h90c4.143 0 7.5-3.358 7.5-7.5s-3.357-7.5-7.5-7.5z"/><path d="m117.25 415.687h90c4.143 0 7.5-3.358 7.5-7.5s-3.357-7.5-7.5-7.5h-90c-4.143 0-7.5 3.358-7.5 7.5s3.357 7.5 7.5 7.5z"/><path d="m394.75 400.687h-90c-4.143 0-7.5 3.358-7.5 7.5s3.357 7.5 7.5 7.5h90c4.143 0 7.5-3.358 7.5-7.5s-3.357-7.5-7.5-7.5z"/></g></svg>