<?xml version="1.0" encoding="iso-8859-1"?>
<!-- Generator: Adobe Illustrator 19.0.0, SVG Export Plug-In . SVG Version: 6.00 Build 0)  -->
<svg version="1.1" id="Layer_1" xmlns="http://www.w3.org/2000/svg" xmlns:xlink="http://www.w3.org/1999/xlink" x="0px" y="0px"
	 viewBox="0 0 512 512" style="enable-background:new 0 0 512 512;" xml:space="preserve">
<g>
	<g>
		<g>
			<path d="M256,0C114.833,0,0,114.844,0,256s114.833,256,256,256s256-114.844,256-256S397.167,0,256,0z M256,21.333
				c5.729,0,11.479,1.073,17.104,3.188c1.229,0.458,2.5,0.677,3.75,0.677c2.29,0,4.435-0.831,6.254-2.169
				c107.785,12.473,193.464,98.182,205.882,205.984c-2.005,2.79-2.792,6.387-1.51,9.852c2.125,5.677,3.188,11.438,3.188,17.135
				c0,38.142-46.901,72.273-115.241,91.16c0.776-4.128,1.846-8.042,2.512-12.223c0.917-5.823-3.042-11.281-8.875-12.208
				c-5.729-0.99-11.292,3.031-12.208,8.854c-1.152,7.249-2.845,14.129-4.333,21.169c-29.645,6.288-62.315,9.914-96.521,9.914
				c-34.28,0-67.014-3.642-96.708-9.956c-6.315-29.697-9.958-62.431-9.958-96.711c0-34.198,3.624-66.861,9.911-96.501
				c6.904-1.462,13.616-3.138,20.755-4.28c5.813-0.927,9.771-6.396,8.854-12.219c-0.958-5.813-6.292-9.844-12.229-8.844
				c-4.044,0.645-7.798,1.684-11.786,2.431C183.727,68.243,217.863,21.333,256,21.333z M23.01,229.013
				c11.102-96.376,80.803-174.949,172.478-199.482c-23.589,24.798-42.504,63.939-54.26,111.926c-1.177,0.29-2.478,0.453-3.645,0.751
				c-5.708,1.458-9.146,7.271-7.688,12.979c0.897,3.522,3.659,5.658,6.829,6.833c-5.572,29-8.725,60.59-8.725,93.979
				c0,32.279,2.977,62.848,8.201,91.056C68.065,328.148,21.333,294.072,21.333,256c0-5.698,1.063-11.458,3.188-17.135
				C25.802,235.4,25.016,231.803,23.01,229.013z M29.531,316.509c24.767,23.56,63.837,42.46,111.74,54.219
				c11.759,47.904,30.659,86.974,54.217,111.741C114.719,460.854,51.143,397.279,29.531,316.509z M282.986,488.99
				c-2.806-2.017-6.43-2.803-9.881-1.51c-5.625,2.115-11.375,3.188-17.104,3.188c-38.064,0-72.143-46.733-91.053-114.867
				C193.155,381.023,223.723,384,256,384c33.348,0,64.901-3.147,93.874-8.707c1.234,3.03,3.669,5.529,7.085,6.395
				c0.875,0.229,1.771,0.333,2.625,0.333c4.771,0,9.104-3.208,10.333-8.042c0.263-1.034,0.404-2.174,0.66-3.216
				c47.97-11.757,87.099-30.669,111.892-54.254C457.939,408.186,379.365,477.889,282.986,488.99z"/>
			<path d="M344.896,416.708c-5.354-2.49-11.688-0.146-14.167,5.198c-5.563,12.063-11.729,22.813-18.271,31.979
				c-3.438,4.792-2.333,11.458,2.458,14.885c1.875,1.344,4.042,1.99,6.208,1.99c3.313,0,6.583-1.552,8.667-4.458
				c7.333-10.25,14.167-22.177,20.313-35.438C352.563,425.51,350.25,419.177,344.896,416.708z"/>
			<path d="M330.542,89.677c1.813,3.896,5.667,6.188,9.688,6.188c1.5,0,3.021-0.313,4.479-0.99
				c5.354-2.469,7.667-8.813,5.208-14.156c-6.104-13.198-12.958-25.104-20.375-35.417c-3.458-4.802-10.167-5.865-14.896-2.427
				c-4.792,3.438-5.875,10.104-2.438,14.885C318.833,66.969,325.021,77.708,330.542,89.677z"/>
			<path d="M372.563,225.667c-5.875,0.229-10.479,5.177-10.25,11.063c0.25,6.344,0.375,12.76,0.354,19.271
				c0,6.344-0.125,12.615-0.354,18.833c-0.208,5.885,4.396,10.833,10.292,11.042c0.125,0.01,0.25,0.01,0.375,0.01
				c5.729,0,10.458-4.521,10.667-10.281c0.229-6.469,0.354-13.01,0.354-19.573c0.021-6.771-0.104-13.479-0.354-20.115
				C383.417,230.042,379.375,225.313,372.563,225.667z"/>
			<path d="M236.313,149.698c0.125,0,0.271,0,0.417-0.01c6.083-0.229,12.25-0.354,18.521-0.354
				c6.667,0.073,13.125,0.104,19.604,0.344c5.792,0.719,10.833-4.365,11.063-10.25c0.208-5.896-4.375-10.844-10.271-11.063
				c-6.479-0.25-13.042-0.365-19.625-0.365c-6.708-0.063-13.479,0.115-20.125,0.375c-5.875,0.229-10.479,5.177-10.25,11.063
				C225.875,145.188,230.604,149.698,236.313,149.698z"/>
			<path d="M421.917,181.271c12.021,5.542,22.771,11.688,31.958,18.271c1.875,1.354,4.042,2,6.208,2
				c3.313,0,6.583-1.552,8.667-4.458c3.438-4.781,2.333-11.448-2.458-14.875c-10.271-7.375-22.208-14.208-35.458-20.313
				c-5.292-2.438-11.688-0.146-14.146,5.219C414.229,172.469,416.563,178.802,421.917,181.271z"/>
			<path d="M334.938,134.073c-5.75-1.021-11.292,3.031-12.208,8.865c-0.917,5.823,3.063,11.281,8.875,12.198
				c7.165,1.134,13.977,2.822,20.945,4.293c1.448,6.842,3.112,13.513,4.242,20.551c0.854,5.25,5.375,8.979,10.521,8.979
				c0.563,0,1.146-0.042,1.708-0.135c5.813-0.938,9.771-6.406,8.854-12.219c-0.807-5.03-2.074-9.75-3.042-14.695
				c3.191-1.171,5.973-3.318,6.875-6.857c1.458-5.708-2-11.521-7.708-12.969c-1.099-0.28-2.309-0.428-3.415-0.701
				c-0.306-1.242-0.478-2.599-0.793-3.831c-1.458-5.708-7.188-9.167-12.979-7.688c-3.703,0.947-6.272,3.794-7.348,7.188
				C344.576,136.109,339.904,134.855,334.938,134.073z"/>
			<path d="M51.542,201.802c2.167,0,4.354-0.656,6.229-2.01c9.167-6.604,19.917-12.771,31.917-18.344
				c5.354-2.479,7.667-8.823,5.188-14.167c-2.458-5.333-8.875-7.667-14.146-5.188c-13.25,6.135-25.167,13-35.417,20.385
				c-4.792,3.438-5.875,10.104-2.417,14.885C44.979,200.26,48.229,201.802,51.542,201.802z"/>
		</g>
	</g>
</g>
<g>
</g>
<g>
</g>
<g>
</g>
<g>
</g>
<g>
</g>
<g>
</g>
<g>
</g>
<g>
</g>
<g>
</g>
<g>
</g>
<g>
</g>
<g>
</g>
<g>
</g>
<g>
</g>
<g>
</g>
</svg>
