<?xml version="1.0" encoding="iso-8859-1"?>
<!-- Generator: Adobe Illustrator 19.0.0, SVG Export Plug-In . SVG Version: 6.00 Build 0)  -->
<svg version="1.1" id="Capa_1" xmlns="http://www.w3.org/2000/svg" xmlns:xlink="http://www.w3.org/1999/xlink" x="0px" y="0px"
	 viewBox="0 0 512 512" style="enable-background:new 0 0 512 512;" xml:space="preserve">
<g>
	<g>
		<path d="M436,0H76c-4.142,0-7.5,3.358-7.5,7.5v497c0,2.626,1.374,5.062,3.622,6.42c2.248,1.358,5.042,1.441,7.368,0.219
			L256,418.341l176.51,92.797c1.095,0.575,2.293,0.861,3.49,0.861c1.345,0,2.688-0.362,3.878-1.08
			c2.248-1.358,3.622-3.793,3.622-6.42V7.5C443.5,3.358,440.142,0,436,0z M428.5,492.083l-15-7.886v-25.469
			c0-4.142-3.358-7.5-7.5-7.5c-4.142,0-7.5,3.358-7.5,7.5v17.583l-139.01-73.082c-1.093-0.574-2.292-0.861-3.49-0.861
			c-1.198,0-2.397,0.287-3.49,0.861L113.5,476.312v-17.583c0-4.142-3.358-7.5-7.5-7.5c-4.142,0-7.5,3.358-7.5,7.5v25.469l-15,7.886
			V15h15v22.5c0,4.142,3.358,7.5,7.5,7.5c4.142,0,7.5-3.358,7.5-7.5V15h285v22.5c0,4.142,3.358,7.5,7.5,7.5
			c4.142,0,7.5-3.358,7.5-7.5V15h15V492.083z"/>
	</g>
</g>
<g>
	<g>
		<path d="M383.132,187.312c-0.881-2.716-3.228-4.695-6.053-5.105l-79.016-11.482l-35.337-71.601
			c-1.264-2.56-3.871-4.181-6.726-4.181c-2.855,0-5.462,1.621-6.726,4.181l-35.337,71.601l-79.016,11.482
			c-2.825,0.41-5.172,2.389-6.054,5.104c-0.882,2.715-0.146,5.695,1.898,7.688l57.176,55.733l-13.498,78.696
			c-0.482,2.814,0.674,5.658,2.984,7.336c2.31,1.677,5.372,1.9,7.898,0.571L256,300.18l70.674,37.156
			c1.098,0.577,2.296,0.861,3.489,0.861c1.555,0,3.103-0.483,4.409-1.432c2.31-1.678,3.466-4.522,2.984-7.336l-13.498-78.696
			L381.234,195C383.278,193.007,384.014,190.027,383.132,187.312z M310.765,242.743c-1.768,1.723-2.575,4.206-2.157,6.639
			l11.595,67.605l-60.713-31.919c-1.093-0.574-2.292-0.861-3.49-0.861c-1.198,0-2.397,0.287-3.49,0.861l-60.713,31.919
			l11.595-67.605c0.417-2.433-0.389-4.916-2.157-6.639l-49.118-47.878l67.879-9.864c2.443-0.355,4.554-1.889,5.647-4.103L256,119.39
			l30.356,61.509c1.093,2.213,3.204,3.748,5.647,4.103l67.879,9.864L310.765,242.743z"/>
	</g>
</g>
<g>
	<g>
		<path d="M106,386.767c-4.142,0-7.5,3.358-7.5,7.5v30c0,4.142,3.358,7.5,7.5,7.5c4.142,0,7.5-3.358,7.5-7.5v-30
			C113.5,390.125,110.142,386.767,106,386.767z"/>
	</g>
</g>
<g>
	<g>
		<path d="M106,322.306c-4.142,0-7.5,3.358-7.5,7.5v30c0,4.142,3.358,7.5,7.5,7.5c4.142,0,7.5-3.358,7.5-7.5v-30
			C113.5,325.664,110.142,322.306,106,322.306z"/>
	</g>
</g>
<g>
	<g>
		<path d="M106,257.845c-4.142,0-7.5,3.358-7.5,7.5v30c0,4.142,3.358,7.5,7.5,7.5c4.142,0,7.5-3.358,7.5-7.5v-30
			C113.5,261.203,110.142,257.845,106,257.845z"/>
	</g>
</g>
<g>
	<g>
		<path d="M106,193.383c-4.142,0-7.5,3.358-7.5,7.5v30c0,4.142,3.358,7.5,7.5,7.5c4.142,0,7.5-3.358,7.5-7.5v-30
			C113.5,196.741,110.142,193.383,106,193.383z"/>
	</g>
</g>
<g>
	<g>
		<path d="M106,128.922c-4.142,0-7.5,3.358-7.5,7.5v30c0,4.142,3.358,7.5,7.5,7.5c4.142,0,7.5-3.358,7.5-7.5v-30
			C113.5,132.28,110.142,128.922,106,128.922z"/>
	</g>
</g>
<g>
	<g>
		<path d="M106,64.461c-4.142,0-7.5,3.358-7.5,7.5v30c0,4.142,3.358,7.5,7.5,7.5c4.142,0,7.5-3.358,7.5-7.5v-30
			C113.5,67.819,110.142,64.461,106,64.461z"/>
	</g>
</g>
<g>
	<g>
		<path d="M406,386.767c-4.142,0-7.5,3.358-7.5,7.5v30c0,4.142,3.358,7.5,7.5,7.5c4.142,0,7.5-3.358,7.5-7.5v-30
			C413.5,390.125,410.142,386.767,406,386.767z"/>
	</g>
</g>
<g>
	<g>
		<path d="M406,322.306c-4.142,0-7.5,3.358-7.5,7.5v30c0,4.142,3.358,7.5,7.5,7.5c4.142,0,7.5-3.358,7.5-7.5v-30
			C413.5,325.664,410.142,322.306,406,322.306z"/>
	</g>
</g>
<g>
	<g>
		<path d="M406,257.845c-4.142,0-7.5,3.358-7.5,7.5v30c0,4.142,3.358,7.5,7.5,7.5c4.142,0,7.5-3.358,7.5-7.5v-30
			C413.5,261.203,410.142,257.845,406,257.845z"/>
	</g>
</g>
<g>
	<g>
		<path d="M406,193.383c-4.142,0-7.5,3.358-7.5,7.5v30c0,4.142,3.358,7.5,7.5,7.5c4.142,0,7.5-3.358,7.5-7.5v-30
			C413.5,196.741,410.142,193.383,406,193.383z"/>
	</g>
</g>
<g>
	<g>
		<path d="M406,128.922c-4.142,0-7.5,3.358-7.5,7.5v30c0,4.142,3.358,7.5,7.5,7.5c4.142,0,7.5-3.358,7.5-7.5v-30
			C413.5,132.28,410.142,128.922,406,128.922z"/>
	</g>
</g>
<g>
	<g>
		<path d="M406,64.461c-4.142,0-7.5,3.358-7.5,7.5v30c0,4.142,3.358,7.5,7.5,7.5c4.142,0,7.5-3.358,7.5-7.5v-30
			C413.5,67.819,410.142,64.461,406,64.461z"/>
	</g>
</g>
<g>
</g>
<g>
</g>
<g>
</g>
<g>
</g>
<g>
</g>
<g>
</g>
<g>
</g>
<g>
</g>
<g>
</g>
<g>
</g>
<g>
</g>
<g>
</g>
<g>
</g>
<g>
</g>
<g>
</g>
</svg>
