<svg id="Capa_1" enable-background="new 0 0 512 512" height="512" viewBox="0 0 512 512" width="512" xmlns="http://www.w3.org/2000/svg"><g><g><g fill="#00c2f3"><path d="m211 422h90v90h-90z"/><path d="m211 0h90v90h-90z"/><path d="m0 211h90v90h-90z"/></g><path d="m422 211h90v90h-90z" fill="#1e90ff"/><path d="m61.8 360.199h90v90h-90z" fill="#00c2f3" transform="matrix(.707 -.707 .707 .707 -255.238 194.2)"/><path d="m61.8 61.8h90v90h-90z" fill="#00c2f3" transform="matrix(.707 -.707 .707 .707 -44.238 106.8)"/><path d="m360.199 360.199h90v90h-90z" fill="#1e90ff" transform="matrix(.707 -.707 .707 .707 -167.839 405.202)"/><path d="m241 241h30v30h-30z" fill="#d4f4ee"/><path d="m171 241h30v30h-30z" fill="#d4f4ee"/><path d="m311 241h30v30h-30z" fill="#b0daed"/></g><path d="m256.5 241h14.5v30h-14.5z" fill="#b0daed"/><g fill="#1e90ff"><path d="m256.5 0h44.5v90h-44.5z"/><path d="m256.5 422h44.5v90h-44.5z"/></g></g></svg>