<?xml version="1.0" encoding="iso-8859-1"?>
<!-- Generator: Adobe Illustrator 19.0.0, SVG Export Plug-In . SVG Version: 6.00 Build 0)  -->
<svg version="1.1" id="Layer_1" xmlns="http://www.w3.org/2000/svg" xmlns:xlink="http://www.w3.org/1999/xlink" x="0px" y="0px"
	 viewBox="0 0 512 512" style="enable-background:new 0 0 512 512;" xml:space="preserve">
<g>
	<g>
		<g>
			<path d="M119.467,85.333c-32.93,0-59.733,26.795-59.733,59.733c0,32.939,26.803,59.733,59.733,59.733
				c32.93,0,59.733-26.795,59.733-59.733C179.2,112.128,152.397,85.333,119.467,85.333z M119.467,187.733
				c-23.526,0-42.667-19.14-42.667-42.667c0-23.526,19.14-42.667,42.667-42.667c23.526,0,42.667,19.14,42.667,42.667
				C162.133,168.593,142.993,187.733,119.467,187.733z"/>
			<path d="M59.699,238.933c-28.194,0-51.149,22.963-51.166,51.191c0,28.237,22.963,51.209,51.2,51.209h0.009
				c28.237-0.017,51.2-22.989,51.191-51.2c0.009-13.679-5.316-26.53-15.002-36.207C86.263,244.258,73.412,238.933,59.699,238.933z
				 M59.725,324.267c-18.816,0-34.125-15.317-34.125-34.133C25.617,271.309,40.909,256,59.733,256c9.114,0,17.69,3.55,24.141,9.993
				c6.443,6.451,9.992,15.027,9.992,24.141C93.875,308.941,78.558,324.258,59.725,324.267z"/>
			<path d="M119.723,426.667h-0.085c-4.71,0-8.491,3.823-8.491,8.533s3.866,8.533,8.576,8.533s8.533-3.823,8.533-8.533
				S124.433,426.667,119.723,426.667z"/>
			<path d="M409.6,409.6c-14.114,0-25.6,11.486-25.6,25.6s11.486,25.6,25.6,25.6c14.114,0,25.6-11.486,25.6-25.6
				S423.714,409.6,409.6,409.6z M409.6,443.733c-4.71,0-8.533-3.831-8.533-8.533s3.823-8.533,8.533-8.533s8.533,3.831,8.533,8.533
				S414.31,443.733,409.6,443.733z"/>
			<path d="M469.333,256c-18.825,0-34.133,15.309-34.133,34.133s15.309,34.133,34.133,34.133c18.825,0,34.133-15.309,34.133-34.133
				S488.158,256,469.333,256z M469.333,307.2c-9.412,0-17.067-7.654-17.067-17.067c0-9.412,7.654-17.067,17.067-17.067
				c9.412,0,17.067,7.654,17.067,17.067C486.4,299.546,478.746,307.2,469.333,307.2z"/>
			<path d="M264.533,477.867c-9.412,0-17.067,7.654-17.067,17.067c0,9.395,7.646,17.05,17.05,17.067h0.017
				c9.412,0,17.067-7.654,17.067-17.084C281.583,485.513,273.929,477.867,264.533,477.867z"/>
			<path d="M452.267,145.067c0-23.526-19.14-42.667-42.667-42.667c-23.526,0-42.667,19.14-42.667,42.667
				c0,23.526,19.14,42.667,42.667,42.667C433.126,187.733,452.267,168.593,452.267,145.067z M384,145.067
				c0-14.114,11.486-25.6,25.6-25.6c14.114,0,25.6,11.486,25.6,25.6s-11.486,25.6-25.6,25.6
				C395.486,170.667,384,159.181,384,145.067z"/>
			<path d="M264.533,0c-37.64,0-68.267,30.626-68.267,68.267c0,37.641,30.626,68.267,68.267,68.267
				c37.641,0,68.267-30.626,68.267-68.267C332.8,30.626,302.174,0,264.533,0z M264.533,119.467c-28.237,0-51.2-22.963-51.2-51.2
				s22.963-51.2,51.2-51.2s51.2,22.963,51.2,51.2S292.77,119.467,264.533,119.467z"/>
		</g>
	</g>
</g>
<g>
</g>
<g>
</g>
<g>
</g>
<g>
</g>
<g>
</g>
<g>
</g>
<g>
</g>
<g>
</g>
<g>
</g>
<g>
</g>
<g>
</g>
<g>
</g>
<g>
</g>
<g>
</g>
<g>
</g>
</svg>
