<svg height="511pt" viewBox="-31 0 511 511.97867" width="511pt" xmlns="http://www.w3.org/2000/svg"><path d="m336.488281 213.332031h-288c-26.472656 0-48-21.546875-48-48v-117.332031c0-26.453125 21.527344-48 48-48h288c26.476563 0 48 21.546875 48 48v117.332031c0 26.453125-21.523437 48-48 48zm-288-181.332031c-8.832031 0-16 7.1875-16 16v117.332031c0 8.8125 7.167969 16 16 16h288c8.832031 0 16-7.1875 16-16v-117.332031c0-8.8125-7.167969-16-16-16zm0 0"/><path d="m293.824219 213.332031c-8.832031 0-16-7.167969-16-16v-181.332031c0-8.832031 7.167969-16 16-16s16 7.167969 16 16v181.332031c0 8.832031-7.167969 16-16 16zm0 0"/><path d="m391.65625 511.980469c-6.824219 0-13.652344-2.582031-18.859375-7.789063l-110.015625-110.015625c-10.386719-10.390625-10.386719-27.304687 0-37.71875l30.1875-30.164062c10.390625-10.410157 27.308594-10.410157 37.71875 0l110.015625 110.015625c10.390625 10.390625 10.390625 27.308594 0 37.71875l-30.164063 30.164062c-5.226562 5.207032-12.054687 7.789063-18.882812 7.789063zm-102.484375-136.664063 102.484375 102.484375 22.636719-22.632812-102.464844-102.484375zm0 0"/><path d="m287.808594 370.070312c-3.882813 0-7.746094-1.386718-10.816406-4.226562l-95.105469-87.402344c-6.507813-5.972656-6.933594-16.085937-.960938-22.613281 5.972657-6.503906 16.109375-6.910156 22.613281-.9375l95.105469 87.402344c6.507813 5.972656 6.933594 16.085937.960938 22.613281-3.179688 3.414062-7.488281 5.164062-11.796875 5.164062zm0 0"/><path d="m240.488281 282.667969h-96c-20.585937 0-37.332031-16.746094-37.332031-37.335938v-48c0-8.832031 7.167969-16 16-16h138.667969c8.832031 0 16 7.167969 16 16v48c0 20.589844-16.75 37.335938-37.335938 37.335938zm-101.332031-69.335938v32c0 2.945313 2.390625 5.335938 5.332031 5.335938h96c2.945313 0 5.335938-2.390625 5.335938-5.335938v-32zm0 0"/></svg>