<svg height="512" viewBox="0 0 60 60" width="512" xmlns="http://www.w3.org/2000/svg"><g id="Page-1" fill="none" fill-rule="evenodd"><g id="027---AR-360-Degree-View" fill="rgb(0,0,0)" fill-rule="nonzero"><path id="Shape" d="m33.526 11.969-3.526 1.896-3.526-1.9c-.4865629-.261783-1.093217-.0795629-1.355.407s-.0795629 1.093217.407 1.355l3.474 1.873v2.4c0 .5522847.4477153 1 1 1s1-.4477153 1-1v-2.4l3.474-1.867c.4865629-.261783.668783-.8684371.407-1.355s-.8684371-.668783-1.355-.407z"/><path id="Shape" d="m44 22v-14c-.0001367-.35174583-.1850653-.6775544-.487-.858-.013-.008-.028-.011-.042-.018l-13-7c-.2959236-.15930021-.6520764-.15930021-.948 0l-13 7c-.014.007-.029.01-.042.018-.2996323.18192763-.4821296.50746337-.481.858v14c.000193.3677348.2022003.7056937.526.88l13 7c.2959236.1593002.6520764.1593002.948 0l13-7c.3237997-.1743063.525807-.5122652.526-.88zm-2-.6-11 5.926v-3.326c0-.5522847-.4477153-1-1-1s-1 .4477153-1 1v3.326l-11-5.926v-11.727l2.526 1.358c.4865629.261783 1.093217.0795629 1.355-.407s.0795629-1.09321703-.407-1.355l-2.363-1.269 10.889-5.864 10.889 5.864-2.363 1.27c-.4865629.26178297-.668783.8684371-.407 1.355s.8684371.668783 1.355.407l2.526-1.359z"/><path id="Shape" d="m49.7 26.24 4.3-1.282c.3492253-.0963269.6190452-.3739933.7053244-.7258357.0862791-.3518424-.0244762-.722834-.2895206-.9697927s-.6429261-.3312613-.9878038-.2203716l-6.708 2c-.5290058.1580554-.8298227.7149247-.672 1.244l2 6.708c.1264245.4235794.5159563.7138985.958.714.0967968-.0000135.1930979-.0138189.286-.041.2542719-.0758916.4679546-.2497335.5939946-.4832451s.1541016-.5075441.0780054-.7617549l-1.339-4.491c5.969 3.279 9.375 7.909 9.375 12.831 0 9.505-12.561 17.238-28 17.238s-28-7.733-28-17.238c0-4.912 3.41-9.547 9.38-12.827l-1.338 4.487c-.07609616.2542108-.04803463.5282433.0780054.7617549.12604.2335116.3397227.4073535.5939946.4832451.0929021.0271811.1892032.0409865.286.041.4420437-.0001015.8315755-.2904206.958-.714l2-6.708c.1578227-.5290753-.1429942-1.0859446-.672-1.244l-6.708-2c-.52452244-.1446791-1.06846149.1565654-1.22411123.6779376s.13411867 1.0715105.65211123 1.2380624l4.3 1.283c-6.56 3.64-10.306 8.884-10.306 14.521 0 10.608 13.458 19.238 30 19.238s30-8.63 30-19.238c0-5.646-3.739-10.882-10.3-14.522z"/><path id="Shape" d="m21 33c-1.7245035-.0040102-3.2568321 1.0992663-3.8 2.736-.1742458.5246705.1098295 1.0912541.6345 1.2655.5246705.1742458 1.0912541-.1098295 1.2655-.6345.323233-.9687689 1.3244352-1.5383919 2.3223611-1.3212817.9979258.2171101 1.6719774 1.1512036 1.5635114 2.1666976s-.9646033 1.7861463-1.9858725 1.7875841c-.5522847 0-1 .4477153-1 1s.4477153 1 1 1c1.0212692.0014378 1.8774065.7720901 1.9858725 1.7875841s-.5655856 1.9495875-1.5635114 2.1666976c-.9979259.2171102-1.9991281-.3525128-2.3223611-1.3212817-.1742459-.5246705-.7408295-.8087458-1.2655-.6345-.5246705.1742459-.8087458.7408295-.6345 1.2655.5327293 1.5955853 2.0068113 2.6873749 3.6883928 2.7318351 1.6815815.0444601 3.2112964-.9679105 3.8275955-2.5331162.616299-1.5652056.1874747-3.3487502-1.0729883-4.4627189 1.2473074-1.1000209 1.6838444-2.8570601 1.0963934-4.4129274-.5874511-1.5558674-2.0763178-2.5859291-3.7393934-2.5870726z"/><path id="Shape" d="m30 47c2.342115-.1485494 4.1270679-2.1566214 4-4.5.1270679-2.3433786-1.657885-4.3514506-4-4.5-.4557637.0058316-.9061997.098838-1.327.274.4133256-1.4479467 1.4022293-2.6631128 2.736-3.362.3372795-.1387771.5722579-.4501702.6131772-.8125818s-.1187107-.7183593-.4165553-.9288472-.6866625-.2421303-1.0146219-.082571c-4.539 2.037-4.591 8.632-4.591 8.912.006183.0520822.0165499.103582.031.154-.008.116-.031.228-.031.346-.1270679 2.3433786 1.657885 4.3514506 4 4.5zm0-7c1.2324358.1564335 2.1179166 1.2632846 2 2.5.1179166 1.2367154-.7675642 2.3435665-2 2.5-1.2324358-.1564335-2.1179166-1.2632846-2-2.5-.1179166-1.2367154.7675642-2.3435665 2-2.5z"/><path id="Shape" d="m35 37v6c0 2.209139 1.790861 4 4 4s4-1.790861 4-4v-6c0-2.209139-1.790861-4-4-4s-4 1.790861-4 4zm6 0v6c0 1.1045695-.8954305 2-2 2s-2-.8954305-2-2v-6c0-1.1045695.8954305-2 2-2s2 .8954305 2 2z"/></g></g></svg>