<?xml version="1.0" encoding="iso-8859-1"?>
<!-- Generator: Adobe Illustrator 19.0.0, SVG Export Plug-In . SVG Version: 6.00 Build 0)  -->
<svg version="1.1" id="Capa_1" xmlns="http://www.w3.org/2000/svg" xmlns:xlink="http://www.w3.org/1999/xlink" x="0px" y="0px"
	 viewBox="0 0 512 512" style="enable-background:new 0 0 512 512;" xml:space="preserve">
<g>
	<g>
		<path d="M270.652,309.878c-0.37-8.149-7.301-14.46-15.425-14.083c-8.148,0.37-14.454,7.277-14.083,15.425
			c0.059,1.282,0.088,2.576,0.087,3.857v14c0,8.157,6.613,14.769,14.769,14.769s14.769-6.613,14.769-14.769v-13.99
			C270.77,313.364,270.731,311.611,270.652,309.878z"/>
	</g>
</g>
<g>
	<g>
		<path d="M250.328,250.168c-4.065-5.801-8.699-11.249-13.774-16.195c-5.842-5.691-15.193-5.572-20.885,0.272
			c-5.692,5.843-5.571,15.193,0.271,20.885c3.757,3.661,7.189,7.694,10.197,11.988c2.873,4.102,7.454,6.296,12.108,6.296
			c2.927,0,5.884-0.868,8.463-2.675C253.389,266.058,255.008,256.848,250.328,250.168z"/>
	</g>
</g>
<g>
	<g>
		<path d="M180.912,204.264c-6.911-1.451-14.017-2.258-21.126-2.397c-0.098-0.002-0.195-0.003-0.293-0.003
			c-8.022,0-14.604,6.425-14.76,14.482c-0.159,8.156,6.323,14.895,14.479,15.055c5.265,0.102,10.523,0.698,15.628,1.771
			c1.025,0.215,2.045,0.318,3.052,0.318c6.837,0,12.977-4.777,14.438-11.736C194.007,213.772,188.895,205.941,180.912,204.264z"/>
	</g>
</g>
<g>
	<g>
		<path d="M295.995,458.654c-3.752-3.664-7.179-7.7-10.183-11.997c-4.672-6.687-13.882-8.315-20.567-3.643
			c-6.686,4.673-8.316,13.881-3.643,20.567c4.06,5.807,8.689,11.262,13.762,16.212c2.872,2.803,6.594,4.199,10.315,4.199
			c3.839,0,7.677-1.489,10.571-4.453C301.947,473.7,301.833,464.351,295.995,458.654z"/>
	</g>
</g>
<g>
	<g>
		<path d="M352.7,482.443c-5.264-0.108-10.522-0.71-15.627-1.788c-7.981-1.683-15.817,3.421-17.502,11.401
			c-1.685,7.98,3.42,15.816,11.4,17.502c6.91,1.458,14.015,2.273,21.121,2.418c0.103,0.002,0.207,0.003,0.309,0.003
			c8.016,0,14.595-6.414,14.76-14.465C367.329,489.358,360.855,482.61,352.7,482.443z"/>
	</g>
</g>
<g>
	<g>
		<path d="M270.769,398.769v-14.106c0-8.157-6.613-14.769-14.769-14.769s-14.769,6.613-14.769,14.769v14.106
			c0,1.682,0.037,3.388,0.111,5.069c0.349,7.928,6.884,14.121,14.744,14.121c0.22,0,0.439-0.005,0.66-0.015
			c8.149-0.358,14.465-7.255,14.107-15.403C270.797,401.29,270.769,400.021,270.769,398.769z"/>
	</g>
</g>
<g>
	<g>
		<path d="M94.066,0C42.198,0,0,42.198,0,94.066c0,35.408,20.007,67.829,51.342,83.821l30.335,46.765
			c2.723,4.198,7.387,6.732,12.39,6.732c5.004,0,9.667-2.533,12.39-6.732l30.334-46.765c31.333-15.992,51.34-48.413,51.34-83.821
			C188.131,42.198,145.935,0,94.066,0z M94.066,120.055c-14.331,0-25.99-11.659-25.99-25.99s11.659-25.989,25.99-25.989
			c14.33,0,25.989,11.659,25.989,25.99S108.396,120.055,94.066,120.055z"/>
	</g>
</g>
<g>
	<g>
		<path d="M417.934,280.615c-51.869,0-94.065,42.198-94.065,94.066c0,35.408,20.007,67.829,51.342,83.822l30.334,46.764
			c2.723,4.198,7.387,6.732,12.39,6.732c5.004,0,9.667-2.534,12.39-6.732l30.335-46.765C491.993,442.51,512,410.089,512,374.682
			C512,322.813,469.802,280.615,417.934,280.615z M417.934,400.671c-14.33,0-25.989-11.659-25.989-25.99
			c0-14.33,11.659-25.989,25.989-25.989c14.331,0,25.99,11.659,25.99,25.989C443.923,389.012,432.265,400.671,417.934,400.671z"/>
	</g>
</g>
<g>
</g>
<g>
</g>
<g>
</g>
<g>
</g>
<g>
</g>
<g>
</g>
<g>
</g>
<g>
</g>
<g>
</g>
<g>
</g>
<g>
</g>
<g>
</g>
<g>
</g>
<g>
</g>
<g>
</g>
</svg>
