<?xml version="1.0" encoding="iso-8859-1"?>
<!-- Generator: Adobe Illustrator 19.0.0, SVG Export Plug-In . SVG Version: 6.00 Build 0)  -->
<svg version="1.1" id="Layer_1" xmlns="http://www.w3.org/2000/svg" xmlns:xlink="http://www.w3.org/1999/xlink" x="0px" y="0px"
	 viewBox="0 0 512 512" style="enable-background:new 0 0 512 512;" xml:space="preserve">
<g>
	<g>
		<path d="M426.667,85.333c-7.76,0-15.052,2.083-21.333,5.729V64c0-23.531-19.135-42.667-42.667-42.667
			c-8.781,0-16.938,2.667-23.729,7.219C333.094,11.948,317.25,0,298.667,0c-18.583,0-34.427,11.948-40.271,28.552
			c-6.792-4.552-14.948-7.219-23.729-7.219C211.135,21.333,192,40.469,192,64v264.146c0,5.375-3.542,8.135-5.063,9.073
			s-5.615,2.865-10.375,0.469l-68.5-34.25c-6.24-3.125-13.229-4.771-20.208-4.771c-24.917,0-45.187,20.271-45.187,45.188V352
			c0,2.958,1.229,5.781,3.385,7.802l123.115,114.906C194.937,498.75,228.542,512,263.781,512h66.885
			c76.458,0,138.667-62.208,138.667-138.667V128C469.333,104.469,450.198,85.333,426.667,85.333z M448,373.333
			c0,64.698-52.635,117.333-117.333,117.333h-66.885c-29.813,0-58.25-11.208-80.052-31.563L64,347.365v-3.51
			C64,330.698,74.698,320,87.854,320c3.677,0,7.375,0.875,10.667,2.521l68.5,34.25c9.969,5.01,21.635,4.458,31.135-1.396
			c9.5-5.875,15.177-16.052,15.177-27.229V64c0-11.76,9.573-21.333,21.333-21.333C246.427,42.667,256,52.24,256,64v138.667
			c0,5.896,4.771,10.667,10.667,10.667c5.896,0,10.667-4.771,10.667-10.667v-160c0-11.76,9.573-21.333,21.333-21.333
			c11.76,0,21.333,9.573,21.333,21.333v160c0,5.896,4.771,10.667,10.667,10.667c5.896,0,10.667-4.771,10.667-10.667V64
			c0-11.76,9.573-21.333,21.333-21.333S384,52.24,384,64v170.667c0,4.042,2.323,7.75,5.938,9.563c0.01,0,0.021,0.01,0.042,0.021
			s0.042,0.021,0.063,0.031c0.052,0.021,0.104,0.042,0.146,0.073c0.021,0,0.021,0.021,0.042,0.01l0.01,0.01
			c0.01,0,0.021,0.01,0.021,0.01c0.021,0.01,0.021,0.01,0.042,0.01c0.01,0.021,0.021,0.021,0.031,0.021l0.031,0.01
			c0.01,0,0.01,0.021,0.042,0.021c0.021,0.042,0.042,0.01,0.042,0.01c5.135,2.25,11.24,0.094,13.802-5
			c0.917-1.844,1.26-3.823,1.083-5.729V128c0-11.76,9.573-21.333,21.333-21.333S448,116.24,448,128V373.333z"/>
	</g>
</g>
<g>
</g>
<g>
</g>
<g>
</g>
<g>
</g>
<g>
</g>
<g>
</g>
<g>
</g>
<g>
</g>
<g>
</g>
<g>
</g>
<g>
</g>
<g>
</g>
<g>
</g>
<g>
</g>
<g>
</g>
</svg>
