<svg id="Capa_1" enable-background="new 0 0 512 512" height="512" viewBox="0 0 512 512" width="512" xmlns="http://www.w3.org/2000/svg"><g><path d="m391.5 192.21v-162.085h-152.191c-19.015-18.623-45.03-30.125-73.684-30.125-58.104 0-105.375 47.271-105.375 105.375 0 53.012 39.351 96.999 90.375 104.303v121.572h81.1l-20.85 41.71v67.331l35.854 71.709h139.041l65.979-131.959v-67.332zm-301.25-86.835c0-41.562 33.813-75.375 75.375-75.375s75.375 33.813 75.375 75.375-33.813 75.375-75.375 75.375-75.375-33.813-75.375-75.375zm90.375 195.875v-91.572c51.024-7.304 90.375-51.291 90.375-104.303 0-16.188-3.673-31.532-10.223-45.25h100.723v241.125h-30.25v-75.375c0-24.882-20.243-45.125-45.125-45.125s-45.125 20.243-45.125 45.125v75.375zm241.125 71.709-54.521 109.041h-101.958l-24.396-48.791v-53.169l30.125-60.265v-93.9c0-8.34 6.785-15.125 15.125-15.125s15.125 6.785 15.125 15.125v93.916l31.709 63.417 26.832-13.416-19.271-38.542h50.98v-71.959l30.25 60.5z"/><path d="m150.625 126.5h30v30h-30z"/><path d="m150.625 54.247h30v56h-30z"/></g></svg>