<svg id="_x31_px" enable-background="new 0 0 24 24" height="512" viewBox="0 0 24 24" width="512" xmlns="http://www.w3.org/2000/svg"><path d="m12 7c-.061 0-.122-.011-.18-.033l-6.5-2.5c-.193-.074-.32-.26-.32-.467s.127-.393.32-.467l6.5-2.5c.116-.044.243-.044.359 0l6.5 2.5c.194.074.321.26.321.467s-.127.393-.32.467l-6.5 2.5c-.058.022-.119.033-.18.033zm-5.107-3 5.107 1.964 5.107-1.964-5.107-1.964z"/><path d="m12 15c-.061 0-.122-.011-.18-.033l-6.5-2.5c-.193-.074-.32-.26-.32-.467v-8c0-.276.224-.5.5-.5s.5.224.5.5v7.657l6 2.308 6-2.308v-7.657c0-.276.224-.5.5-.5s.5.224.5.5v8c0 .207-.127.393-.32.467l-6.5 2.5c-.058.022-.119.033-.18.033z"/><path d="m12 15c-.276 0-.5-.224-.5-.5v-8c0-.276.224-.5.5-.5s.5.224.5.5v8c0 .276-.224.5-.5.5z"/><path d="m10.5 22c-.152 0-.302-.069-.4-.2-.166-.221-.121-.534.1-.7l1.466-1.1-1.466-1.1c-.221-.166-.266-.479-.1-.7s.479-.265.7-.1l2 1.5c.126.094.2.243.2.4s-.074.306-.2.4l-2 1.5c-.09.067-.195.1-.3.1z"/><path d="m12 20.5c-1.512 0-2.943-.072-4.254-.213-1.814-.183-7.746-.961-7.746-3.287 0-.949.979-1.742 2.908-2.356.317-.098.657.149.657.477 0 .242-.168.444-.396.49-1.6.515-2.169 1.07-2.169 1.389 0 .666 2.125 1.816 6.85 2.292 1.278.138 2.673.208 4.15.208.276 0 .5.224.5.5s-.224.5-.5.5z"/><path d="m15.49 20.35c-.258 0-.477-.198-.498-.459-.022-.275.183-.517.458-.539 5.15-.421 7.55-1.652 7.55-2.352 0-.322-.579-.883-2.212-1.403-.263-.084-.408-.365-.325-.628.084-.263.364-.408.628-.325 1.93.614 2.909 1.407 2.909 2.356 0 2.465-6.482 3.186-8.469 3.349-.014.001-.028.001-.041.001z"/></svg>